<?xml version="1.0" encoding="UTF-8"?>
<svg height="1000" version="1.1" width="1000" xmlns="http://www.w3.org/2000/svg">
    <defs>
        <linearGradient gradientTransform="rotate(45)" id="shadow">
            <stop offset="0%" stop-color="#0000003F" stop-opacity="25%" />
            <stop offset="100%" stop-color="#00000000" stop-opacity="0%" />
        </linearGradient>
    </defs>
    <polygon fill="url(#shadow)"
        points="275,725 800,1250 1250,780 735,265 685,415 535,265 485,415 335,265" />
    <path
        d="M 100,500 Q 0,500 0,400 V 50 A 50,50 180 0,1 100,50 V 200 A 50,50 150 0,0 200,200 V 50 A 50,50 180 0,1 300,50 V 200 A 50,50 180 0,0 400,200 V 50 A 50,50 180 0,1 500,50 V 400 Q 500,500 400,500 Z"
        fill="#FFFFFF" transform="translate(250,250)" />
</svg>
